<?xml version="1.0" encoding="utf-8" standalone="no"?>
<!DOCTYPE svg PUBLIC "-//W3C//DTD SVG 1.1//EN"
  "http://www.w3.org/Graphics/SVG/1.1/DTD/svg11.dtd">
<!-- Created with matplotlib (https://matplotlib.org/) -->
<svg height="273.599688pt" version="1.1" viewBox="0 0 624.51 273.599688" width="624.51pt" xmlns="http://www.w3.org/2000/svg" xmlns:xlink="http://www.w3.org/1999/xlink">
 <defs>
  <style type="text/css">
*{stroke-linecap:butt;stroke-linejoin:round;}
  </style>
 </defs>
 <g id="figure_1">
  <g id="patch_1">
   <path d="M 0 273.599688 
L 624.51 273.599688 
L 624.51 0 
L 0 0 
z
" style="fill:none;"/>
  </g>
  <g id="axes_1">
   <g id="patch_2">
    <path d="M 53.31 230.64 
L 306.946364 230.64 
L 306.946364 13.2 
L 53.31 13.2 
z
" style="fill:#eaeaf2;"/>
   </g>
   <g id="matplotlib.axis_1">
    <g id="xtick_1">
     <g id="text_1">
      <!-- False -->
      <defs>
       <path d="M 9.8125 72.90625 
L 51.703125 72.90625 
L 51.703125 64.59375 
L 19.671875 64.59375 
L 19.671875 43.109375 
L 48.578125 43.109375 
L 48.578125 34.8125 
L 19.671875 34.8125 
L 19.671875 0 
L 9.8125 0 
z
" id="DejaVuSans-70"/>
       <path d="M 34.28125 27.484375 
Q 23.390625 27.484375 19.1875 25 
Q 14.984375 22.515625 14.984375 16.5 
Q 14.984375 11.71875 18.140625 8.90625 
Q 21.296875 6.109375 26.703125 6.109375 
Q 34.1875 6.109375 38.703125 11.40625 
Q 43.21875 16.703125 43.21875 25.484375 
L 43.21875 27.484375 
z
M 52.203125 31.203125 
L 52.203125 0 
L 43.21875 0 
L 43.21875 8.296875 
Q 40.140625 3.328125 35.546875 0.953125 
Q 30.953125 -1.421875 24.3125 -1.421875 
Q 15.921875 -1.421875 10.953125 3.296875 
Q 6 8.015625 6 15.921875 
Q 6 25.140625 12.171875 29.828125 
Q 18.359375 34.515625 30.609375 34.515625 
L 43.21875 34.515625 
L 43.21875 35.40625 
Q 43.21875 41.609375 39.140625 45 
Q 35.0625 48.390625 27.6875 48.390625 
Q 23 48.390625 18.546875 47.265625 
Q 14.109375 46.140625 10.015625 43.890625 
L 10.015625 52.203125 
Q 14.9375 54.109375 19.578125 55.046875 
Q 24.21875 56 28.609375 56 
Q 40.484375 56 46.34375 49.84375 
Q 52.203125 43.703125 52.203125 31.203125 
z
" id="DejaVuSans-97"/>
       <path d="M 9.421875 75.984375 
L 18.40625 75.984375 
L 18.40625 0 
L 9.421875 0 
z
" id="DejaVuSans-108"/>
       <path d="M 44.28125 53.078125 
L 44.28125 44.578125 
Q 40.484375 46.53125 36.375 47.5 
Q 32.28125 48.484375 27.875 48.484375 
Q 21.1875 48.484375 17.84375 46.4375 
Q 14.5 44.390625 14.5 40.28125 
Q 14.5 37.15625 16.890625 35.375 
Q 19.28125 33.59375 26.515625 31.984375 
L 29.59375 31.296875 
Q 39.15625 29.25 43.1875 25.515625 
Q 47.21875 21.78125 47.21875 15.09375 
Q 47.21875 7.46875 41.1875 3.015625 
Q 35.15625 -1.421875 24.609375 -1.421875 
Q 20.21875 -1.421875 15.453125 -0.5625 
Q 10.6875 0.296875 5.421875 2 
L 5.421875 11.28125 
Q 10.40625 8.6875 15.234375 7.390625 
Q 20.0625 6.109375 24.8125 6.109375 
Q 31.15625 6.109375 34.5625 8.28125 
Q 37.984375 10.453125 37.984375 14.40625 
Q 37.984375 18.0625 35.515625 20.015625 
Q 33.0625 21.96875 24.703125 23.78125 
L 21.578125 24.515625 
Q 13.234375 26.265625 9.515625 29.90625 
Q 5.8125 33.546875 5.8125 39.890625 
Q 5.8125 47.609375 11.28125 51.796875 
Q 16.75 56 26.8125 56 
Q 31.78125 56 36.171875 55.265625 
Q 40.578125 54.546875 44.28125 53.078125 
z
" id="DejaVuSans-115"/>
       <path d="M 56.203125 29.59375 
L 56.203125 25.203125 
L 14.890625 25.203125 
Q 15.484375 15.921875 20.484375 11.0625 
Q 25.484375 6.203125 34.421875 6.203125 
Q 39.59375 6.203125 44.453125 7.46875 
Q 49.3125 8.734375 54.109375 11.28125 
L 54.109375 2.78125 
Q 49.265625 0.734375 44.1875 -0.34375 
Q 39.109375 -1.421875 33.890625 -1.421875 
Q 20.796875 -1.421875 13.15625 6.1875 
Q 5.515625 13.8125 5.515625 26.8125 
Q 5.515625 40.234375 12.765625 48.109375 
Q 20.015625 56 32.328125 56 
Q 43.359375 56 49.78125 48.890625 
Q 56.203125 41.796875 56.203125 29.59375 
z
M 47.21875 32.234375 
Q 47.125 39.59375 43.09375 43.984375 
Q 39.0625 48.390625 32.421875 48.390625 
Q 24.90625 48.390625 20.390625 44.140625 
Q 15.875 39.890625 15.1875 32.171875 
z
" id="DejaVuSans-101"/>
      </defs>
      <g style="fill:#262626;" transform="translate(102.415653 248.498281)scale(0.11 -0.11)">
       <use xlink:href="#DejaVuSans-70"/>
       <use x="57.378906" xlink:href="#DejaVuSans-97"/>
       <use x="118.658203" xlink:href="#DejaVuSans-108"/>
       <use x="146.441406" xlink:href="#DejaVuSans-115"/>
       <use x="198.541016" xlink:href="#DejaVuSans-101"/>
      </g>
     </g>
    </g>
    <g id="xtick_2">
     <g id="text_2">
      <!-- True -->
      <defs>
       <path d="M -0.296875 72.90625 
L 61.375 72.90625 
L 61.375 64.59375 
L 35.5 64.59375 
L 35.5 0 
L 25.59375 0 
L 25.59375 64.59375 
L -0.296875 64.59375 
z
" id="DejaVuSans-84"/>
       <path d="M 41.109375 46.296875 
Q 39.59375 47.171875 37.8125 47.578125 
Q 36.03125 48 33.890625 48 
Q 26.265625 48 22.1875 43.046875 
Q 18.109375 38.09375 18.109375 28.8125 
L 18.109375 0 
L 9.078125 0 
L 9.078125 54.6875 
L 18.109375 54.6875 
L 18.109375 46.1875 
Q 20.953125 51.171875 25.484375 53.578125 
Q 30.03125 56 36.53125 56 
Q 37.453125 56 38.578125 55.875 
Q 39.703125 55.765625 41.0625 55.515625 
z
" id="DejaVuSans-114"/>
       <path d="M 8.5 21.578125 
L 8.5 54.6875 
L 17.484375 54.6875 
L 17.484375 21.921875 
Q 17.484375 14.15625 20.5 10.265625 
Q 23.53125 6.390625 29.59375 6.390625 
Q 36.859375 6.390625 41.078125 11.03125 
Q 45.3125 15.671875 45.3125 23.6875 
L 45.3125 54.6875 
L 54.296875 54.6875 
L 54.296875 0 
L 45.3125 0 
L 45.3125 8.40625 
Q 42.046875 3.421875 37.71875 1 
Q 33.40625 -1.421875 27.6875 -1.421875 
Q 18.265625 -1.421875 13.375 4.4375 
Q 8.5 10.296875 8.5 21.578125 
z
M 31.109375 56 
z
" id="DejaVuSans-117"/>
      </defs>
      <g style="fill:#262626;" transform="translate(231.059148 248.498281)scale(0.11 -0.11)">
       <use xlink:href="#DejaVuSans-84"/>
       <use x="60.865234" xlink:href="#DejaVuSans-114"/>
       <use x="101.978516" xlink:href="#DejaVuSans-117"/>
       <use x="165.357422" xlink:href="#DejaVuSans-101"/>
      </g>
     </g>
    </g>
    <g id="text_3">
     <!-- Churn -->
     <defs>
      <path d="M 64.40625 67.28125 
L 64.40625 56.890625 
Q 59.421875 61.53125 53.78125 63.8125 
Q 48.140625 66.109375 41.796875 66.109375 
Q 29.296875 66.109375 22.65625 58.46875 
Q 16.015625 50.828125 16.015625 36.375 
Q 16.015625 21.96875 22.65625 14.328125 
Q 29.296875 6.6875 41.796875 6.6875 
Q 48.140625 6.6875 53.78125 8.984375 
Q 59.421875 11.28125 64.40625 15.921875 
L 64.40625 5.609375 
Q 59.234375 2.09375 53.4375 0.328125 
Q 47.65625 -1.421875 41.21875 -1.421875 
Q 24.65625 -1.421875 15.125 8.703125 
Q 5.609375 18.84375 5.609375 36.375 
Q 5.609375 53.953125 15.125 64.078125 
Q 24.65625 74.21875 41.21875 74.21875 
Q 47.75 74.21875 53.53125 72.484375 
Q 59.328125 70.75 64.40625 67.28125 
z
" id="DejaVuSans-67"/>
      <path d="M 54.890625 33.015625 
L 54.890625 0 
L 45.90625 0 
L 45.90625 32.71875 
Q 45.90625 40.484375 42.875 44.328125 
Q 39.84375 48.1875 33.796875 48.1875 
Q 26.515625 48.1875 22.3125 43.546875 
Q 18.109375 38.921875 18.109375 30.90625 
L 18.109375 0 
L 9.078125 0 
L 9.078125 75.984375 
L 18.109375 75.984375 
L 18.109375 46.1875 
Q 21.34375 51.125 25.703125 53.5625 
Q 30.078125 56 35.796875 56 
Q 45.21875 56 50.046875 50.171875 
Q 54.890625 44.34375 54.890625 33.015625 
z
" id="DejaVuSans-104"/>
      <path d="M 54.890625 33.015625 
L 54.890625 0 
L 45.90625 0 
L 45.90625 32.71875 
Q 45.90625 40.484375 42.875 44.328125 
Q 39.84375 48.1875 33.796875 48.1875 
Q 26.515625 48.1875 22.3125 43.546875 
Q 18.109375 38.921875 18.109375 30.90625 
L 18.109375 0 
L 9.078125 0 
L 9.078125 54.6875 
L 18.109375 54.6875 
L 18.109375 46.1875 
Q 21.34375 51.125 25.703125 53.5625 
Q 30.078125 56 35.796875 56 
Q 45.21875 56 50.046875 50.171875 
Q 54.890625 44.34375 54.890625 33.015625 
z
" id="DejaVuSans-110"/>
     </defs>
     <g style="fill:#262626;" transform="translate(162.065369 263.904063)scale(0.12 -0.12)">
      <use xlink:href="#DejaVuSans-67"/>
      <use x="69.824219" xlink:href="#DejaVuSans-104"/>
      <use x="133.203125" xlink:href="#DejaVuSans-117"/>
      <use x="196.582031" xlink:href="#DejaVuSans-114"/>
      <use x="237.679688" xlink:href="#DejaVuSans-110"/>
     </g>
    </g>
   </g>
   <g id="matplotlib.axis_2">
    <g id="ytick_1">
     <g id="line2d_1">
      <path clip-path="url(#p20f653686b)" d="M 53.31 202.367368 
L 306.946364 202.367368 
" style="fill:none;stroke:#ffffff;stroke-linecap:round;"/>
     </g>
     <g id="text_4">
      <!-- 0 -->
      <defs>
       <path d="M 31.78125 66.40625 
Q 24.171875 66.40625 20.328125 58.90625 
Q 16.5 51.421875 16.5 36.375 
Q 16.5 21.390625 20.328125 13.890625 
Q 24.171875 6.390625 31.78125 6.390625 
Q 39.453125 6.390625 43.28125 13.890625 
Q 47.125 21.390625 47.125 36.375 
Q 47.125 51.421875 43.28125 58.90625 
Q 39.453125 66.40625 31.78125 66.40625 
z
M 31.78125 74.21875 
Q 44.046875 74.21875 50.515625 64.515625 
Q 56.984375 54.828125 56.984375 36.375 
Q 56.984375 17.96875 50.515625 8.265625 
Q 44.046875 -1.421875 31.78125 -1.421875 
Q 19.53125 -1.421875 13.0625 8.265625 
Q 6.59375 17.96875 6.59375 36.375 
Q 6.59375 54.828125 13.0625 64.515625 
Q 19.53125 74.21875 31.78125 74.21875 
z
" id="DejaVuSans-48"/>
      </defs>
      <g style="fill:#262626;" transform="translate(36.81125 206.546509)scale(0.11 -0.11)">
       <use xlink:href="#DejaVuSans-48"/>
      </g>
     </g>
    </g>
    <g id="ytick_2">
     <g id="line2d_2">
      <path clip-path="url(#p20f653686b)" d="M 53.31 156.502278 
L 306.946364 156.502278 
" style="fill:none;stroke:#ffffff;stroke-linecap:round;"/>
     </g>
     <g id="text_5">
      <!-- 100 -->
      <defs>
       <path d="M 12.40625 8.296875 
L 28.515625 8.296875 
L 28.515625 63.921875 
L 10.984375 60.40625 
L 10.984375 69.390625 
L 28.421875 72.90625 
L 38.28125 72.90625 
L 38.28125 8.296875 
L 54.390625 8.296875 
L 54.390625 0 
L 12.40625 0 
z
" id="DejaVuSans-49"/>
      </defs>
      <g style="fill:#262626;" transform="translate(22.81375 160.681419)scale(0.11 -0.11)">
       <use xlink:href="#DejaVuSans-49"/>
       <use x="63.623047" xlink:href="#DejaVuSans-48"/>
       <use x="127.246094" xlink:href="#DejaVuSans-48"/>
      </g>
     </g>
    </g>
    <g id="ytick_3">
     <g id="line2d_3">
      <path clip-path="url(#p20f653686b)" d="M 53.31 110.637188 
L 306.946364 110.637188 
" style="fill:none;stroke:#ffffff;stroke-linecap:round;"/>
     </g>
     <g id="text_6">
      <!-- 200 -->
      <defs>
       <path d="M 19.1875 8.296875 
L 53.609375 8.296875 
L 53.609375 0 
L 7.328125 0 
L 7.328125 8.296875 
Q 12.9375 14.109375 22.625 23.890625 
Q 32.328125 33.6875 34.8125 36.53125 
Q 39.546875 41.84375 41.421875 45.53125 
Q 43.3125 49.21875 43.3125 52.78125 
Q 43.3125 58.59375 39.234375 62.25 
Q 35.15625 65.921875 28.609375 65.921875 
Q 23.96875 65.921875 18.8125 64.3125 
Q 13.671875 62.703125 7.8125 59.421875 
L 7.8125 69.390625 
Q 13.765625 71.78125 18.9375 73 
Q 24.125 74.21875 28.421875 74.21875 
Q 39.75 74.21875 46.484375 68.546875 
Q 53.21875 62.890625 53.21875 53.421875 
Q 53.21875 48.921875 51.53125 44.890625 
Q 49.859375 40.875 45.40625 35.40625 
Q 44.1875 33.984375 37.640625 27.21875 
Q 31.109375 20.453125 19.1875 8.296875 
z
" id="DejaVuSans-50"/>
      </defs>
      <g style="fill:#262626;" transform="translate(22.81375 114.816328)scale(0.11 -0.11)">
       <use xlink:href="#DejaVuSans-50"/>
       <use x="63.623047" xlink:href="#DejaVuSans-48"/>
       <use x="127.246094" xlink:href="#DejaVuSans-48"/>
      </g>
     </g>
    </g>
    <g id="ytick_4">
     <g id="line2d_4">
      <path clip-path="url(#p20f653686b)" d="M 53.31 64.772098 
L 306.946364 64.772098 
" style="fill:none;stroke:#ffffff;stroke-linecap:round;"/>
     </g>
     <g id="text_7">
      <!-- 300 -->
      <defs>
       <path d="M 40.578125 39.3125 
Q 47.65625 37.796875 51.625 33 
Q 55.609375 28.21875 55.609375 21.1875 
Q 55.609375 10.40625 48.1875 4.484375 
Q 40.765625 -1.421875 27.09375 -1.421875 
Q 22.515625 -1.421875 17.65625 -0.515625 
Q 12.796875 0.390625 7.625 2.203125 
L 7.625 11.71875 
Q 11.71875 9.328125 16.59375 8.109375 
Q 21.484375 6.890625 26.8125 6.890625 
Q 36.078125 6.890625 40.9375 10.546875 
Q 45.796875 14.203125 45.796875 21.1875 
Q 45.796875 27.640625 41.28125 31.265625 
Q 36.765625 34.90625 28.71875 34.90625 
L 20.21875 34.90625 
L 20.21875 43.015625 
L 29.109375 43.015625 
Q 36.375 43.015625 40.234375 45.921875 
Q 44.09375 48.828125 44.09375 54.296875 
Q 44.09375 59.90625 40.109375 62.90625 
Q 36.140625 65.921875 28.71875 65.921875 
Q 24.65625 65.921875 20.015625 65.03125 
Q 15.375 64.15625 9.8125 62.3125 
L 9.8125 71.09375 
Q 15.4375 72.65625 20.34375 73.4375 
Q 25.25 74.21875 29.59375 74.21875 
Q 40.828125 74.21875 47.359375 69.109375 
Q 53.90625 64.015625 53.90625 55.328125 
Q 53.90625 49.265625 50.4375 45.09375 
Q 46.96875 40.921875 40.578125 39.3125 
z
" id="DejaVuSans-51"/>
      </defs>
      <g style="fill:#262626;" transform="translate(22.81375 68.951238)scale(0.11 -0.11)">
       <use xlink:href="#DejaVuSans-51"/>
       <use x="63.623047" xlink:href="#DejaVuSans-48"/>
       <use x="127.246094" xlink:href="#DejaVuSans-48"/>
      </g>
     </g>
    </g>
    <g id="ytick_5">
     <g id="line2d_5">
      <path clip-path="url(#p20f653686b)" d="M 53.31 18.907008 
L 306.946364 18.907008 
" style="fill:none;stroke:#ffffff;stroke-linecap:round;"/>
     </g>
     <g id="text_8">
      <!-- 400 -->
      <defs>
       <path d="M 37.796875 64.3125 
L 12.890625 25.390625 
L 37.796875 25.390625 
z
M 35.203125 72.90625 
L 47.609375 72.90625 
L 47.609375 25.390625 
L 58.015625 25.390625 
L 58.015625 17.1875 
L 47.609375 17.1875 
L 47.609375 0 
L 37.796875 0 
L 37.796875 17.1875 
L 4.890625 17.1875 
L 4.890625 26.703125 
z
" id="DejaVuSans-52"/>
      </defs>
      <g style="fill:#262626;" transform="translate(22.81375 23.086148)scale(0.11 -0.11)">
       <use xlink:href="#DejaVuSans-52"/>
       <use x="63.623047" xlink:href="#DejaVuSans-48"/>
       <use x="127.246094" xlink:href="#DejaVuSans-48"/>
      </g>
     </g>
    </g>
    <g id="text_9">
     <!-- Total day minutes -->
     <defs>
      <path d="M 30.609375 48.390625 
Q 23.390625 48.390625 19.1875 42.75 
Q 14.984375 37.109375 14.984375 27.296875 
Q 14.984375 17.484375 19.15625 11.84375 
Q 23.34375 6.203125 30.609375 6.203125 
Q 37.796875 6.203125 41.984375 11.859375 
Q 46.1875 17.53125 46.1875 27.296875 
Q 46.1875 37.015625 41.984375 42.703125 
Q 37.796875 48.390625 30.609375 48.390625 
z
M 30.609375 56 
Q 42.328125 56 49.015625 48.375 
Q 55.71875 40.765625 55.71875 27.296875 
Q 55.71875 13.875 49.015625 6.21875 
Q 42.328125 -1.421875 30.609375 -1.421875 
Q 18.84375 -1.421875 12.171875 6.21875 
Q 5.515625 13.875 5.515625 27.296875 
Q 5.515625 40.765625 12.171875 48.375 
Q 18.84375 56 30.609375 56 
z
" id="DejaVuSans-111"/>
      <path d="M 18.3125 70.21875 
L 18.3125 54.6875 
L 36.8125 54.6875 
L 36.8125 47.703125 
L 18.3125 47.703125 
L 18.3125 18.015625 
Q 18.3125 11.328125 20.140625 9.421875 
Q 21.96875 7.515625 27.59375 7.515625 
L 36.8125 7.515625 
L 36.8125 0 
L 27.59375 0 
Q 17.1875 0 13.234375 3.875 
Q 9.28125 7.765625 9.28125 18.015625 
L 9.28125 47.703125 
L 2.6875 47.703125 
L 2.6875 54.6875 
L 9.28125 54.6875 
L 9.28125 70.21875 
z
" id="DejaVuSans-116"/>
      <path id="DejaVuSans-32"/>
      <path d="M 45.40625 46.390625 
L 45.40625 75.984375 
L 54.390625 75.984375 
L 54.390625 0 
L 45.40625 0 
L 45.40625 8.203125 
Q 42.578125 3.328125 38.25 0.953125 
Q 33.9375 -1.421875 27.875 -1.421875 
Q 17.96875 -1.421875 11.734375 6.484375 
Q 5.515625 14.40625 5.515625 27.296875 
Q 5.515625 40.1875 11.734375 48.09375 
Q 17.96875 56 27.875 56 
Q 33.9375 56 38.25 53.625 
Q 42.578125 51.265625 45.40625 46.390625 
z
M 14.796875 27.296875 
Q 14.796875 17.390625 18.875 11.75 
Q 22.953125 6.109375 30.078125 6.109375 
Q 37.203125 6.109375 41.296875 11.75 
Q 45.40625 17.390625 45.40625 27.296875 
Q 45.40625 37.203125 41.296875 42.84375 
Q 37.203125 48.484375 30.078125 48.484375 
Q 22.953125 48.484375 18.875 42.84375 
Q 14.796875 37.203125 14.796875 27.296875 
z
" id="DejaVuSans-100"/>
      <path d="M 32.171875 -5.078125 
Q 28.375 -14.84375 24.75 -17.8125 
Q 21.140625 -20.796875 15.09375 -20.796875 
L 7.90625 -20.796875 
L 7.90625 -13.28125 
L 13.1875 -13.28125 
Q 16.890625 -13.28125 18.9375 -11.515625 
Q 21 -9.765625 23.484375 -3.21875 
L 25.09375 0.875 
L 2.984375 54.6875 
L 12.5 54.6875 
L 29.59375 11.921875 
L 46.6875 54.6875 
L 56.203125 54.6875 
z
" id="DejaVuSans-121"/>
      <path d="M 52 44.1875 
Q 55.375 50.25 60.0625 53.125 
Q 64.75 56 71.09375 56 
Q 79.640625 56 84.28125 50.015625 
Q 88.921875 44.046875 88.921875 33.015625 
L 88.921875 0 
L 79.890625 0 
L 79.890625 32.71875 
Q 79.890625 40.578125 77.09375 44.375 
Q 74.3125 48.1875 68.609375 48.1875 
Q 61.625 48.1875 57.5625 43.546875 
Q 53.515625 38.921875 53.515625 30.90625 
L 53.515625 0 
L 44.484375 0 
L 44.484375 32.71875 
Q 44.484375 40.625 41.703125 44.40625 
Q 38.921875 48.1875 33.109375 48.1875 
Q 26.21875 48.1875 22.15625 43.53125 
Q 18.109375 38.875 18.109375 30.90625 
L 18.109375 0 
L 9.078125 0 
L 9.078125 54.6875 
L 18.109375 54.6875 
L 18.109375 46.1875 
Q 21.1875 51.21875 25.484375 53.609375 
Q 29.78125 56 35.6875 56 
Q 41.65625 56 45.828125 52.96875 
Q 50 49.953125 52 44.1875 
z
" id="DejaVuSans-109"/>
      <path d="M 9.421875 54.6875 
L 18.40625 54.6875 
L 18.40625 0 
L 9.421875 0 
z
M 9.421875 75.984375 
L 18.40625 75.984375 
L 18.40625 64.59375 
L 9.421875 64.59375 
z
" id="DejaVuSans-105"/>
     </defs>
     <g style="fill:#262626;" transform="translate(16.318125 176.072812)rotate(-90)scale(0.12 -0.12)">
      <use xlink:href="#DejaVuSans-84"/>
      <use x="60.818359" xlink:href="#DejaVuSans-111"/>
      <use x="122" xlink:href="#DejaVuSans-116"/>
      <use x="161.208984" xlink:href="#DejaVuSans-97"/>
      <use x="222.488281" xlink:href="#DejaVuSans-108"/>
      <use x="250.271484" xlink:href="#DejaVuSans-32"/>
      <use x="282.058594" xlink:href="#DejaVuSans-100"/>
      <use x="345.535156" xlink:href="#DejaVuSans-97"/>
      <use x="406.814453" xlink:href="#DejaVuSans-121"/>
      <use x="465.994141" xlink:href="#DejaVuSans-32"/>
      <use x="497.78125" xlink:href="#DejaVuSans-109"/>
      <use x="595.193359" xlink:href="#DejaVuSans-105"/>
      <use x="622.976562" xlink:href="#DejaVuSans-110"/>
      <use x="686.355469" xlink:href="#DejaVuSans-117"/>
      <use x="749.734375" xlink:href="#DejaVuSans-116"/>
      <use x="788.943359" xlink:href="#DejaVuSans-101"/>
      <use x="850.466797" xlink:href="#DejaVuSans-115"/>
     </g>
    </g>
   </g>
   <g id="patch_3">
    <path clip-path="url(#p20f653686b)" d="M 65.991818 136.860553 
L 167.446364 136.860553 
L 167.446364 105.913084 
L 65.991818 105.913084 
L 65.991818 136.860553 
z
" style="fill:#5875a4;stroke:#4c4c4c;stroke-linejoin:miter;stroke-width:1.5;"/>
   </g>
   <g id="patch_4">
    <path clip-path="url(#p20f653686b)" d="M 192.81 132.079117 
L 294.264545 132.079117 
L 294.264545 80.389161 
L 192.81 80.389161 
L 192.81 132.079117 
z
" style="fill:#cc8963;stroke:#4c4c4c;stroke-linejoin:miter;stroke-width:1.5;"/>
   </g>
   <g id="line2d_6">
    <path clip-path="url(#p20f653686b)" d="M 116.719091 136.860553 
L 116.719091 183.149895 
" style="fill:none;stroke:#4c4c4c;stroke-linecap:round;stroke-width:1.5;"/>
   </g>
   <g id="line2d_7">
    <path clip-path="url(#p20f653686b)" d="M 116.719091 105.913084 
L 116.719091 60.002128 
" style="fill:none;stroke:#4c4c4c;stroke-linecap:round;stroke-width:1.5;"/>
   </g>
   <g id="line2d_8">
    <path clip-path="url(#p20f653686b)" d="M 91.355455 183.149895 
L 142.082727 183.149895 
" style="fill:none;stroke:#4c4c4c;stroke-linecap:round;stroke-width:1.5;"/>
   </g>
   <g id="line2d_9">
    <path clip-path="url(#p20f653686b)" d="M 91.355455 60.002128 
L 142.082727 60.002128 
" style="fill:none;stroke:#4c4c4c;stroke-linecap:round;stroke-width:1.5;"/>
   </g>
   <g id="line2d_10">
    <defs>
     <path d="M -0 3.535534 
L 2.12132 0 
L -0 -3.535534 
L -2.12132 -0 
z
" id="m35c8f92504" style="stroke:#4c4c4c;stroke-linejoin:miter;"/>
    </defs>
    <g clip-path="url(#p20f653686b)">
     <use style="fill:#4c4c4c;stroke:#4c4c4c;stroke-linejoin:miter;" x="116.719091" xlink:href="#m35c8f92504" y="183.608546"/>
     <use style="fill:#4c4c4c;stroke:#4c4c4c;stroke-linejoin:miter;" x="116.719091" xlink:href="#m35c8f92504" y="188.195055"/>
     <use style="fill:#4c4c4c;stroke:#4c4c4c;stroke-linejoin:miter;" x="116.719091" xlink:href="#m35c8f92504" y="186.773237"/>
     <use style="fill:#4c4c4c;stroke:#4c4c4c;stroke-linejoin:miter;" x="116.719091" xlink:href="#m35c8f92504" y="196.634232"/>
     <use style="fill:#4c4c4c;stroke:#4c4c4c;stroke-linejoin:miter;" x="116.719091" xlink:href="#m35c8f92504" y="190.48831"/>
     <use style="fill:#4c4c4c;stroke:#4c4c4c;stroke-linejoin:miter;" x="116.719091" xlink:href="#m35c8f92504" y="186.268721"/>
     <use style="fill:#4c4c4c;stroke:#4c4c4c;stroke-linejoin:miter;" x="116.719091" xlink:href="#m35c8f92504" y="202.367368"/>
     <use style="fill:#4c4c4c;stroke:#4c4c4c;stroke-linejoin:miter;" x="116.719091" xlink:href="#m35c8f92504" y="184.250657"/>
     <use style="fill:#4c4c4c;stroke:#4c4c4c;stroke-linejoin:miter;" x="116.719091" xlink:href="#m35c8f92504" y="193.423675"/>
     <use style="fill:#4c4c4c;stroke:#4c4c4c;stroke-linejoin:miter;" x="116.719091" xlink:href="#m35c8f92504" y="185.030364"/>
     <use style="fill:#4c4c4c;stroke:#4c4c4c;stroke-linejoin:miter;" x="116.719091" xlink:href="#m35c8f92504" y="198.744026"/>
     <use style="fill:#4c4c4c;stroke:#4c4c4c;stroke-linejoin:miter;" x="116.719091" xlink:href="#m35c8f92504" y="189.983794"/>
     <use style="fill:#4c4c4c;stroke:#4c4c4c;stroke-linejoin:miter;" x="116.719091" xlink:href="#m35c8f92504" y="185.076229"/>
     <use style="fill:#4c4c4c;stroke:#4c4c4c;stroke-linejoin:miter;" x="116.719091" xlink:href="#m35c8f92504" y="194.295112"/>
     <use style="fill:#4c4c4c;stroke:#4c4c4c;stroke-linejoin:miter;" x="116.719091" xlink:href="#m35c8f92504" y="183.837872"/>
     <use style="fill:#4c4c4c;stroke:#4c4c4c;stroke-linejoin:miter;" x="116.719091" xlink:href="#m35c8f92504" y="201.174876"/>
     <use style="fill:#4c4c4c;stroke:#4c4c4c;stroke-linejoin:miter;" x="116.719091" xlink:href="#m35c8f92504" y="198.789891"/>
     <use style="fill:#4c4c4c;stroke:#4c4c4c;stroke-linejoin:miter;" x="116.719091" xlink:href="#m35c8f92504" y="193.698866"/>
     <use style="fill:#4c4c4c;stroke:#4c4c4c;stroke-linejoin:miter;" x="116.719091" xlink:href="#m35c8f92504" y="188.653706"/>
     <use style="fill:#4c4c4c;stroke:#4c4c4c;stroke-linejoin:miter;" x="116.719091" xlink:href="#m35c8f92504" y="57.617144"/>
     <use style="fill:#4c4c4c;stroke:#4c4c4c;stroke-linejoin:miter;" x="116.719091" xlink:href="#m35c8f92504" y="58.442715"/>
    </g>
   </g>
   <g id="line2d_11">
    <path clip-path="url(#p20f653686b)" d="M 243.537273 132.079117 
L 243.537273 202.367368 
" style="fill:none;stroke:#4c4c4c;stroke-linecap:round;stroke-width:1.5;"/>
   </g>
   <g id="line2d_12">
    <path clip-path="url(#p20f653686b)" d="M 243.537273 80.389161 
L 243.537273 41.472632 
" style="fill:none;stroke:#4c4c4c;stroke-linecap:round;stroke-width:1.5;"/>
   </g>
   <g id="line2d_13">
    <path clip-path="url(#p20f653686b)" d="M 218.173636 202.367368 
L 268.900909 202.367368 
" style="fill:none;stroke:#4c4c4c;stroke-linecap:round;stroke-width:1.5;"/>
   </g>
   <g id="line2d_14">
    <path clip-path="url(#p20f653686b)" d="M 218.173636 41.472632 
L 268.900909 41.472632 
" style="fill:none;stroke:#4c4c4c;stroke-linecap:round;stroke-width:1.5;"/>
   </g>
   <g id="line2d_15"/>
   <g id="line2d_16">
    <path clip-path="url(#p20f653686b)" d="M 65.991818 121.094428 
L 167.446364 121.094428 
" style="fill:none;stroke:#4c4c4c;stroke-linecap:round;stroke-width:1.5;"/>
   </g>
   <g id="line2d_17">
    <path clip-path="url(#p20f653686b)" d="M 192.81 102.564932 
L 294.264545 102.564932 
" style="fill:none;stroke:#4c4c4c;stroke-linecap:round;stroke-width:1.5;"/>
   </g>
   <g id="patch_5">
    <path d="M 53.31 230.64 
L 53.31 13.2 
" style="fill:none;stroke:#ffffff;stroke-linecap:square;stroke-linejoin:miter;stroke-width:1.25;"/>
   </g>
   <g id="patch_6">
    <path d="M 306.946364 230.64 
L 306.946364 13.2 
" style="fill:none;stroke:#ffffff;stroke-linecap:square;stroke-linejoin:miter;stroke-width:1.25;"/>
   </g>
   <g id="patch_7">
    <path d="M 53.31 230.64 
L 306.946364 230.64 
" style="fill:none;stroke:#ffffff;stroke-linecap:square;stroke-linejoin:miter;stroke-width:1.25;"/>
   </g>
   <g id="patch_8">
    <path d="M 53.31 13.2 
L 306.946364 13.2 
" style="fill:none;stroke:#ffffff;stroke-linecap:square;stroke-linejoin:miter;stroke-width:1.25;"/>
   </g>
  </g>
  <g id="axes_2">
   <g id="patch_9">
    <path d="M 357.673636 230.64 
L 611.31 230.64 
L 611.31 13.2 
L 357.673636 13.2 
z
" style="fill:#eaeaf2;"/>
   </g>
   <g id="matplotlib.axis_3">
    <g id="xtick_3">
     <g id="text_10">
      <!-- False -->
      <g style="fill:#262626;" transform="translate(406.77929 248.498281)scale(0.11 -0.11)">
       <use xlink:href="#DejaVuSans-70"/>
       <use x="57.378906" xlink:href="#DejaVuSans-97"/>
       <use x="118.658203" xlink:href="#DejaVuSans-108"/>
       <use x="146.441406" xlink:href="#DejaVuSans-115"/>
       <use x="198.541016" xlink:href="#DejaVuSans-101"/>
      </g>
     </g>
    </g>
    <g id="xtick_4">
     <g id="text_11">
      <!-- True -->
      <g style="fill:#262626;" transform="translate(535.422784 248.498281)scale(0.11 -0.11)">
       <use xlink:href="#DejaVuSans-84"/>
       <use x="60.865234" xlink:href="#DejaVuSans-114"/>
       <use x="101.978516" xlink:href="#DejaVuSans-117"/>
       <use x="165.357422" xlink:href="#DejaVuSans-101"/>
      </g>
     </g>
    </g>
    <g id="text_12">
     <!-- Churn -->
     <g style="fill:#262626;" transform="translate(466.429006 263.904063)scale(0.12 -0.12)">
      <use xlink:href="#DejaVuSans-67"/>
      <use x="69.824219" xlink:href="#DejaVuSans-104"/>
      <use x="133.203125" xlink:href="#DejaVuSans-117"/>
      <use x="196.582031" xlink:href="#DejaVuSans-114"/>
      <use x="237.679688" xlink:href="#DejaVuSans-110"/>
     </g>
    </g>
   </g>
   <g id="matplotlib.axis_4">
    <g id="ytick_6">
     <g id="line2d_18">
      <path clip-path="url(#p94324b08d8)" d="M 357.673636 202.367368 
L 611.31 202.367368 
" style="fill:none;stroke:#ffffff;stroke-linecap:round;"/>
     </g>
    </g>
    <g id="ytick_7">
     <g id="line2d_19">
      <path clip-path="url(#p94324b08d8)" d="M 357.673636 156.502278 
L 611.31 156.502278 
" style="fill:none;stroke:#ffffff;stroke-linecap:round;"/>
     </g>
    </g>
    <g id="ytick_8">
     <g id="line2d_20">
      <path clip-path="url(#p94324b08d8)" d="M 357.673636 110.637188 
L 611.31 110.637188 
" style="fill:none;stroke:#ffffff;stroke-linecap:round;"/>
     </g>
    </g>
    <g id="ytick_9">
     <g id="line2d_21">
      <path clip-path="url(#p94324b08d8)" d="M 357.673636 64.772098 
L 611.31 64.772098 
" style="fill:none;stroke:#ffffff;stroke-linecap:round;"/>
     </g>
    </g>
    <g id="ytick_10">
     <g id="line2d_22">
      <path clip-path="url(#p94324b08d8)" d="M 357.673636 18.907008 
L 611.31 18.907008 
" style="fill:none;stroke:#ffffff;stroke-linecap:round;"/>
     </g>
    </g>
    <g id="text_13">
     <!-- Total day minutes -->
     <g style="fill:#262626;" transform="translate(351.178011 176.072812)rotate(-90)scale(0.12 -0.12)">
      <use xlink:href="#DejaVuSans-84"/>
      <use x="60.818359" xlink:href="#DejaVuSans-111"/>
      <use x="122" xlink:href="#DejaVuSans-116"/>
      <use x="161.208984" xlink:href="#DejaVuSans-97"/>
      <use x="222.488281" xlink:href="#DejaVuSans-108"/>
      <use x="250.271484" xlink:href="#DejaVuSans-32"/>
      <use x="282.058594" xlink:href="#DejaVuSans-100"/>
      <use x="345.535156" xlink:href="#DejaVuSans-97"/>
      <use x="406.814453" xlink:href="#DejaVuSans-121"/>
      <use x="465.994141" xlink:href="#DejaVuSans-32"/>
      <use x="497.78125" xlink:href="#DejaVuSans-109"/>
      <use x="595.193359" xlink:href="#DejaVuSans-105"/>
      <use x="622.976562" xlink:href="#DejaVuSans-110"/>
      <use x="686.355469" xlink:href="#DejaVuSans-117"/>
      <use x="749.734375" xlink:href="#DejaVuSans-116"/>
      <use x="788.943359" xlink:href="#DejaVuSans-101"/>
      <use x="850.466797" xlink:href="#DejaVuSans-115"/>
     </g>
    </g>
   </g>
   <g id="PolyCollection_1">
    <defs>
     <path d="M 421.106882 -61.854794 
L 421.058573 -61.854794 
L 421.03234 -63.506362 
L 420.988204 -65.157931 
L 420.922543 -66.809499 
L 420.83606 -68.461068 
L 420.734926 -70.112636 
L 420.62926 -71.764205 
L 420.529204 -73.415773 
L 420.440592 -75.067341 
L 420.362494 -76.71891 
L 420.287544 -78.370478 
L 420.204295 -80.022047 
L 420.100048 -81.673615 
L 419.962821 -83.325184 
L 419.781667 -84.976752 
L 419.545479 -86.628321 
L 419.242093 -88.279889 
L 418.860594 -89.931457 
L 418.398162 -91.583026 
L 417.868178 -93.234594 
L 417.302203 -94.886163 
L 416.739982 -96.537731 
L 416.209443 -98.1893 
L 415.707142 -99.840868 
L 415.191466 -101.492436 
L 414.594251 -103.144005 
L 413.84614 -104.795573 
L 412.903539 -106.447142 
L 411.764101 -108.09871 
L 410.463437 -109.750279 
L 409.055658 -111.401847 
L 407.589067 -113.053416 
L 406.090286 -114.704984 
L 404.563988 -116.356552 
L 403.005367 -118.008121 
L 401.414544 -119.659689 
L 399.800967 -121.311258 
L 398.172894 -122.962826 
L 396.518329 -124.614395 
L 394.791448 -126.265963 
L 392.916695 -127.917531 
L 390.813765 -129.5691 
L 388.436834 -131.220668 
L 385.81369 -132.872237 
L 383.065581 -134.523805 
L 380.391662 -136.175374 
L 378.017094 -137.826942 
L 376.123599 -139.478511 
L 374.790893 -141.130079 
L 373.972093 -142.781647 
L 373.513478 -144.433216 
L 373.214034 -146.084784 
L 372.901966 -147.736353 
L 372.491053 -149.387921 
L 371.987684 -151.03949 
L 371.453321 -152.691058 
L 370.959727 -154.342626 
L 370.571626 -155.994195 
L 370.355455 -157.645763 
L 370.384058 -159.297332 
L 370.718453 -160.9489 
L 371.383487 -162.600469 
L 372.368852 -164.252037 
L 373.661251 -165.903606 
L 375.276887 -167.555174 
L 377.257227 -169.206742 
L 379.622761 -170.858311 
L 382.319927 -172.509879 
L 385.209065 -174.161448 
L 388.112598 -175.813016 
L 390.893333 -177.464585 
L 393.505038 -179.116153 
L 395.979102 -180.767722 
L 398.364434 -182.41929 
L 400.673427 -184.070858 
L 402.87309 -185.722427 
L 404.915739 -187.373995 
L 406.773326 -189.025564 
L 408.447713 -190.677132 
L 409.95887 -192.328701 
L 411.330602 -193.980269 
L 412.586123 -195.631837 
L 413.748829 -197.283406 
L 414.83793 -198.934974 
L 415.857894 -200.586543 
L 416.791516 -202.238111 
L 417.606222 -203.88968 
L 418.272554 -205.541248 
L 418.78352 -207.192817 
L 419.1623 -208.844385 
L 419.453835 -210.495953 
L 419.705956 -212.147522 
L 419.95119 -213.79909 
L 420.198392 -215.450659 
L 420.436599 -217.102227 
L 420.646651 -218.753796 
L 420.813145 -220.405364 
L 420.931007 -222.056932 
L 421.005358 -223.708501 
L 421.047113 -225.360069 
L 421.118341 -225.360069 
L 421.118341 -225.360069 
L 421.160097 -223.708501 
L 421.234447 -222.056932 
L 421.352309 -220.405364 
L 421.518803 -218.753796 
L 421.728856 -217.102227 
L 421.967063 -215.450659 
L 422.214264 -213.79909 
L 422.459498 -212.147522 
L 422.71162 -210.495953 
L 423.003154 -208.844385 
L 423.381935 -207.192817 
L 423.8929 -205.541248 
L 424.559233 -203.88968 
L 425.373938 -202.238111 
L 426.307561 -200.586543 
L 427.327525 -198.934974 
L 428.416626 -197.283406 
L 429.579331 -195.631837 
L 430.834852 -193.980269 
L 432.206584 -192.328701 
L 433.717741 -190.677132 
L 435.392129 -189.025564 
L 437.249716 -187.373995 
L 439.292365 -185.722427 
L 441.492027 -184.070858 
L 443.80102 -182.41929 
L 446.186353 -180.767722 
L 448.660416 -179.116153 
L 451.272122 -177.464585 
L 454.052856 -175.813016 
L 456.95639 -174.161448 
L 459.845528 -172.509879 
L 462.542694 -170.858311 
L 464.908227 -169.206742 
L 466.888567 -167.555174 
L 468.504204 -165.903606 
L 469.796602 -164.252037 
L 470.781967 -162.600469 
L 471.447001 -160.9489 
L 471.781397 -159.297332 
L 471.81 -157.645763 
L 471.593829 -155.994195 
L 471.205728 -154.342626 
L 470.712134 -152.691058 
L 470.17777 -151.03949 
L 469.674401 -149.387921 
L 469.263488 -147.736353 
L 468.95142 -146.084784 
L 468.651977 -144.433216 
L 468.193362 -142.781647 
L 467.374562 -141.130079 
L 466.041855 -139.478511 
L 464.14836 -137.826942 
L 461.773793 -136.175374 
L 459.099873 -134.523805 
L 456.351765 -132.872237 
L 453.728621 -131.220668 
L 451.351689 -129.5691 
L 449.248759 -127.917531 
L 447.374007 -126.265963 
L 445.647125 -124.614395 
L 443.99256 -122.962826 
L 442.364487 -121.311258 
L 440.750911 -119.659689 
L 439.160087 -118.008121 
L 437.601467 -116.356552 
L 436.075169 -114.704984 
L 434.576387 -113.053416 
L 433.109797 -111.401847 
L 431.702018 -109.750279 
L 430.401354 -108.09871 
L 429.261916 -106.447142 
L 428.319315 -104.795573 
L 427.571204 -103.144005 
L 426.973989 -101.492436 
L 426.458313 -99.840868 
L 425.956012 -98.1893 
L 425.425472 -96.537731 
L 424.863251 -94.886163 
L 424.297277 -93.234594 
L 423.767293 -91.583026 
L 423.304861 -89.931457 
L 422.923361 -88.279889 
L 422.619976 -86.628321 
L 422.383788 -84.976752 
L 422.202633 -83.325184 
L 422.065407 -81.673615 
L 421.961159 -80.022047 
L 421.877911 -78.370478 
L 421.802961 -76.71891 
L 421.724862 -75.067341 
L 421.636251 -73.415773 
L 421.536195 -71.764205 
L 421.430529 -70.112636 
L 421.329395 -68.461068 
L 421.242911 -66.809499 
L 421.17725 -65.157931 
L 421.133114 -63.506362 
L 421.106882 -61.854794 
z
" id="m7549cd95d7" style="stroke:#4c4c4c;stroke-width:1.5;"/>
    </defs>
    <g clip-path="url(#p94324b08d8)">
     <use style="fill:#5875a4;stroke:#4c4c4c;stroke-width:1.5;" x="0" xlink:href="#m7549cd95d7" y="273.599688"/>
    </g>
   </g>
   <g id="PolyCollection_2">
    <defs>
     <path d="M 547.938068 -52.843324 
L 547.86375 -52.843324 
L 547.844802 -54.840018 
L 547.820021 -56.836712 
L 547.789493 -58.833407 
L 547.754125 -60.830101 
L 547.715606 -62.826795 
L 547.676052 -64.823489 
L 547.637299 -66.820183 
L 547.599924 -68.816878 
L 547.562195 -70.813572 
L 547.519252 -72.810266 
L 547.462802 -74.80696 
L 547.381583 -76.803654 
L 547.262632 -78.800349 
L 547.093212 -80.797043 
L 546.863024 -82.793737 
L 546.566211 -84.790431 
L 546.202582 -86.787126 
L 545.777672 -88.78382 
L 545.301437 -90.780514 
L 544.785773 -92.777208 
L 544.241333 -94.773902 
L 543.67435 -96.770597 
L 543.084167 -98.767291 
L 542.462012 -100.763985 
L 541.79125 -102.760679 
L 541.049022 -104.757373 
L 540.20902 -106.754068 
L 539.245034 -108.750762 
L 538.134921 -110.747456 
L 536.864637 -112.74415 
L 535.431833 -114.740845 
L 533.848368 -116.737539 
L 532.141009 -118.734233 
L 530.349743 -120.730927 
L 528.523642 -122.727621 
L 526.714981 -124.724316 
L 524.973045 -126.72101 
L 523.339443 -128.717704 
L 521.846472 -130.714398 
L 520.519063 -132.711092 
L 519.37943 -134.707787 
L 518.452225 -136.704481 
L 517.767439 -138.701175 
L 517.358841 -140.697869 
L 517.257328 -142.694564 
L 517.480603 -144.691258 
L 518.022248 -146.687952 
L 518.843858 -148.684646 
L 519.873078 -150.68134 
L 521.00862 -152.678035 
L 522.1313 -154.674729 
L 523.118604 -156.671423 
L 523.859812 -158.668117 
L 524.269118 -160.664811 
L 524.295051 -162.661506 
L 523.92541 -164.6582 
L 523.187415 -166.654894 
L 522.143048 -168.651588 
L 520.879954 -170.648283 
L 519.498857 -172.644977 
L 518.099433 -174.641671 
L 516.767411 -176.638365 
L 515.565877 -178.635059 
L 514.532994 -180.631754 
L 513.686622 -182.628448 
L 513.034174 -184.625142 
L 512.584233 -186.621836 
L 512.355769 -188.61853 
L 512.381546 -190.615225 
L 512.704317 -192.611919 
L 513.366897 -194.608613 
L 514.399272 -196.605307 
L 515.806828 -198.602002 
L 517.563282 -200.598696 
L 519.610324 -202.59539 
L 521.864027 -204.592084 
L 524.226322 -206.588778 
L 526.598771 -208.585473 
L 528.895626 -210.582167 
L 531.053532 -212.578861 
L 533.036175 -214.575555 
L 534.83341 -216.572249 
L 536.455648 -218.568944 
L 537.925352 -220.565638 
L 539.268016 -222.562332 
L 540.504813 -224.559026 
L 541.648366 -226.555721 
L 542.701985 -228.552415 
L 543.661728 -230.549109 
L 544.520023 -232.545803 
L 545.269508 -234.542497 
L 545.906043 -236.539192 
L 546.430388 -238.535886 
L 546.848498 -240.53258 
L 547.170743 -242.529274 
L 547.410488 -244.525968 
L 547.582462 -246.522663 
L 547.701266 -248.519357 
L 547.780219 -250.516051 
L 548.021599 -250.516051 
L 548.021599 -250.516051 
L 548.100552 -248.519357 
L 548.219356 -246.522663 
L 548.39133 -244.525968 
L 548.631075 -242.529274 
L 548.95332 -240.53258 
L 549.371431 -238.535886 
L 549.895775 -236.539192 
L 550.53231 -234.542497 
L 551.281795 -232.545803 
L 552.14009 -230.549109 
L 553.099833 -228.552415 
L 554.153452 -226.555721 
L 555.297005 -224.559026 
L 556.533802 -222.562332 
L 557.876466 -220.565638 
L 559.346171 -218.568944 
L 560.968408 -216.572249 
L 562.765644 -214.575555 
L 564.748287 -212.578861 
L 566.906192 -210.582167 
L 569.203047 -208.585473 
L 571.575496 -206.588778 
L 573.937791 -204.592084 
L 576.191494 -202.59539 
L 578.238536 -200.598696 
L 579.99499 -198.602002 
L 581.402547 -196.605307 
L 582.434921 -194.608613 
L 583.097501 -192.611919 
L 583.420272 -190.615225 
L 583.446049 -188.61853 
L 583.217585 -186.621836 
L 582.767644 -184.625142 
L 582.115196 -182.628448 
L 581.268824 -180.631754 
L 580.235941 -178.635059 
L 579.034407 -176.638365 
L 577.702385 -174.641671 
L 576.302961 -172.644977 
L 574.921864 -170.648283 
L 573.65877 -168.651588 
L 572.614404 -166.654894 
L 571.876408 -164.6582 
L 571.506768 -162.661506 
L 571.5327 -160.664811 
L 571.942006 -158.668117 
L 572.683215 -156.671423 
L 573.670518 -154.674729 
L 574.793198 -152.678035 
L 575.928741 -150.68134 
L 576.95796 -148.684646 
L 577.77957 -146.687952 
L 578.321215 -144.691258 
L 578.54449 -142.694564 
L 578.442978 -140.697869 
L 578.034379 -138.701175 
L 577.349593 -136.704481 
L 576.422388 -134.707787 
L 575.282755 -132.711092 
L 573.955346 -130.714398 
L 572.462375 -128.717704 
L 570.828773 -126.72101 
L 569.086837 -124.724316 
L 567.278176 -122.727621 
L 565.452075 -120.730927 
L 563.660809 -118.734233 
L 561.95345 -116.737539 
L 560.369985 -114.740845 
L 558.937181 -112.74415 
L 557.666897 -110.747456 
L 556.556784 -108.750762 
L 555.592798 -106.754068 
L 554.752797 -104.757373 
L 554.010568 -102.760679 
L 553.339806 -100.763985 
L 552.717652 -98.767291 
L 552.127468 -96.770597 
L 551.560485 -94.773902 
L 551.016045 -92.777208 
L 550.500381 -90.780514 
L 550.024146 -88.78382 
L 549.599236 -86.787126 
L 549.235607 -84.790431 
L 548.938794 -82.793737 
L 548.708607 -80.797043 
L 548.539186 -78.800349 
L 548.420235 -76.803654 
L 548.339016 -74.80696 
L 548.282566 -72.810266 
L 548.239623 -70.813572 
L 548.201895 -68.816878 
L 548.164519 -66.820183 
L 548.125766 -64.823489 
L 548.086212 -62.826795 
L 548.047693 -60.830101 
L 548.012325 -58.833407 
L 547.981797 -56.836712 
L 547.957016 -54.840018 
L 547.938068 -52.843324 
z
" id="m9a9035ebc9" style="stroke:#4c4c4c;stroke-width:1.5;"/>
    </defs>
    <g clip-path="url(#p94324b08d8)">
     <use style="fill:#cc8963;stroke:#4c4c4c;stroke-width:1.5;" x="0" xlink:href="#m9a9035ebc9" y="273.599688"/>
    </g>
   </g>
   <g id="line2d_23">
    <path clip-path="url(#p94324b08d8)" d="M 421.082727 183.149895 
L 421.082727 60.002128 
" style="fill:none;stroke:#4c4c4c;stroke-linecap:round;stroke-width:1.5;"/>
   </g>
   <g id="line2d_24">
    <path clip-path="url(#p94324b08d8)" d="M 421.082727 136.860553 
L 421.082727 105.913084 
" style="fill:none;stroke:#4c4c4c;stroke-linecap:round;stroke-width:4.5;"/>
   </g>
   <g id="line2d_25">
    <path clip-path="url(#p94324b08d8)" d="M 547.900909 202.367368 
L 547.900909 41.472632 
" style="fill:none;stroke:#4c4c4c;stroke-linecap:round;stroke-width:1.5;"/>
   </g>
   <g id="line2d_26">
    <path clip-path="url(#p94324b08d8)" d="M 547.900909 132.079117 
L 547.900909 80.389161 
" style="fill:none;stroke:#4c4c4c;stroke-linecap:round;stroke-width:4.5;"/>
   </g>
   <g id="patch_10">
    <path d="M 357.673636 230.64 
L 357.673636 13.2 
" style="fill:none;stroke:#ffffff;stroke-linecap:square;stroke-linejoin:miter;stroke-width:1.25;"/>
   </g>
   <g id="patch_11">
    <path d="M 611.31 230.64 
L 611.31 13.2 
" style="fill:none;stroke:#ffffff;stroke-linecap:square;stroke-linejoin:miter;stroke-width:1.25;"/>
   </g>
   <g id="patch_12">
    <path d="M 357.673636 230.64 
L 611.31 230.64 
" style="fill:none;stroke:#ffffff;stroke-linecap:square;stroke-linejoin:miter;stroke-width:1.25;"/>
   </g>
   <g id="patch_13">
    <path d="M 357.673636 13.2 
L 611.31 13.2 
" style="fill:none;stroke:#ffffff;stroke-linecap:square;stroke-linejoin:miter;stroke-width:1.25;"/>
   </g>
   <g id="PathCollection_1">
    <defs>
     <path d="M 0 1.5 
C 0.397805 1.5 0.77937 1.341951 1.06066 1.06066 
C 1.341951 0.77937 1.5 0.397805 1.5 0 
C 1.5 -0.397805 1.341951 -0.77937 1.06066 -1.06066 
C 0.77937 -1.341951 0.397805 -1.5 0 -1.5 
C -0.397805 -1.5 -0.77937 -1.341951 -1.06066 -1.06066 
C -1.341951 -0.77937 -1.5 -0.397805 -1.5 0 
C -1.5 0.397805 -1.341951 0.77937 -1.06066 1.06066 
C -0.77937 1.341951 -0.397805 1.5 0 1.5 
z
" id="m21ce1dfb4f" style="stroke:#4c4c4c;"/>
    </defs>
    <g clip-path="url(#p94324b08d8)">
     <use style="fill:#ffffff;stroke:#4c4c4c;" x="421.082727" xlink:href="#m21ce1dfb4f" y="121.094428"/>
    </g>
   </g>
   <g id="PathCollection_2">
    <g clip-path="url(#p94324b08d8)">
     <use style="fill:#ffffff;stroke:#4c4c4c;" x="547.900909" xlink:href="#m21ce1dfb4f" y="102.564932"/>
    </g>
   </g>
  </g>
 </g>
 <defs>
  <clipPath id="p20f653686b">
   <rect height="217.44" width="253.636364" x="53.31" y="13.2"/>
  </clipPath>
  <clipPath id="p94324b08d8">
   <rect height="217.44" width="253.636364" x="357.673636" y="13.2"/>
  </clipPath>
 </defs>
</svg>
