<?xml version="1.0" encoding="utf-8" standalone="no"?>
<!DOCTYPE svg PUBLIC "-//W3C//DTD SVG 1.1//EN"
  "http://www.w3.org/Graphics/SVG/1.1/DTD/svg11.dtd">
<!-- Created with matplotlib (https://matplotlib.org/) -->
<svg height="257.985937pt" version="1.1" viewBox="0 0 378.6975 257.985937" width="378.6975pt" xmlns="http://www.w3.org/2000/svg" xmlns:xlink="http://www.w3.org/1999/xlink">
 <defs>
  <style type="text/css">
*{stroke-linecap:butt;stroke-linejoin:round;}
  </style>
 </defs>
 <g id="figure_1">
  <g id="patch_1">
   <path d="M 0 257.985937 
L 378.6975 257.985937 
L 378.6975 0 
L 0 0 
z
" style="fill:none;"/>
  </g>
  <g id="axes_1">
   <g id="patch_2">
    <path d="M 30.6975 230.64 
L 182.879318 230.64 
L 182.879318 13.2 
L 30.6975 13.2 
z
" style="fill:#eaeaf2;"/>
   </g>
   <g id="matplotlib.axis_1">
    <g id="xtick_1">
     <g id="text_1">
      <!-- 0 -->
      <defs>
       <path d="M 31.78125 66.40625 
Q 24.171875 66.40625 20.328125 58.90625 
Q 16.5 51.421875 16.5 36.375 
Q 16.5 21.390625 20.328125 13.890625 
Q 24.171875 6.390625 31.78125 6.390625 
Q 39.453125 6.390625 43.28125 13.890625 
Q 47.125 21.390625 47.125 36.375 
Q 47.125 51.421875 43.28125 58.90625 
Q 39.453125 66.40625 31.78125 66.40625 
z
M 31.78125 74.21875 
Q 44.046875 74.21875 50.515625 64.515625 
Q 56.984375 54.828125 56.984375 36.375 
Q 56.984375 17.96875 50.515625 8.265625 
Q 44.046875 -1.421875 31.78125 -1.421875 
Q 19.53125 -1.421875 13.0625 8.265625 
Q 6.59375 17.96875 6.59375 36.375 
Q 6.59375 54.828125 13.0625 64.515625 
Q 19.53125 74.21875 31.78125 74.21875 
z
" id="DejaVuSans-48"/>
      </defs>
      <g style="fill:#262626;" transform="translate(103.289034 248.498281)scale(0.11 -0.11)">
       <use xlink:href="#DejaVuSans-48"/>
      </g>
     </g>
    </g>
   </g>
   <g id="matplotlib.axis_2">
    <g id="ytick_1">
     <g id="line2d_1">
      <path clip-path="url(#p6b6dad9664)" d="M 30.6975 212.001526 
L 182.879318 212.001526 
" style="fill:none;stroke:#ffffff;stroke-linecap:round;"/>
     </g>
     <g id="text_2">
      <!-- 0 -->
      <g style="fill:#262626;" transform="translate(14.19875 216.180667)scale(0.11 -0.11)">
       <use xlink:href="#DejaVuSans-48"/>
      </g>
     </g>
    </g>
    <g id="ytick_2">
     <g id="line2d_2">
      <path clip-path="url(#p6b6dad9664)" d="M 30.6975 166.960763 
L 182.879318 166.960763 
" style="fill:none;stroke:#ffffff;stroke-linecap:round;"/>
     </g>
     <g id="text_3">
      <!-- 5 -->
      <defs>
       <path d="M 10.796875 72.90625 
L 49.515625 72.90625 
L 49.515625 64.59375 
L 19.828125 64.59375 
L 19.828125 46.734375 
Q 21.96875 47.46875 24.109375 47.828125 
Q 26.265625 48.1875 28.421875 48.1875 
Q 40.625 48.1875 47.75 41.5 
Q 54.890625 34.8125 54.890625 23.390625 
Q 54.890625 11.625 47.5625 5.09375 
Q 40.234375 -1.421875 26.90625 -1.421875 
Q 22.3125 -1.421875 17.546875 -0.640625 
Q 12.796875 0.140625 7.71875 1.703125 
L 7.71875 11.625 
Q 12.109375 9.234375 16.796875 8.0625 
Q 21.484375 6.890625 26.703125 6.890625 
Q 35.15625 6.890625 40.078125 11.328125 
Q 45.015625 15.765625 45.015625 23.390625 
Q 45.015625 31 40.078125 35.4375 
Q 35.15625 39.890625 26.703125 39.890625 
Q 22.75 39.890625 18.8125 39.015625 
Q 14.890625 38.140625 10.796875 36.28125 
z
" id="DejaVuSans-53"/>
      </defs>
      <g style="fill:#262626;" transform="translate(14.19875 171.139904)scale(0.11 -0.11)">
       <use xlink:href="#DejaVuSans-53"/>
      </g>
     </g>
    </g>
    <g id="ytick_3">
     <g id="line2d_3">
      <path clip-path="url(#p6b6dad9664)" d="M 30.6975 121.92 
L 182.879318 121.92 
" style="fill:none;stroke:#ffffff;stroke-linecap:round;"/>
     </g>
     <g id="text_4">
      <!-- 10 -->
      <defs>
       <path d="M 12.40625 8.296875 
L 28.515625 8.296875 
L 28.515625 63.921875 
L 10.984375 60.40625 
L 10.984375 69.390625 
L 28.421875 72.90625 
L 38.28125 72.90625 
L 38.28125 8.296875 
L 54.390625 8.296875 
L 54.390625 0 
L 12.40625 0 
z
" id="DejaVuSans-49"/>
      </defs>
      <g style="fill:#262626;" transform="translate(7.2 126.099141)scale(0.11 -0.11)">
       <use xlink:href="#DejaVuSans-49"/>
       <use x="63.623047" xlink:href="#DejaVuSans-48"/>
      </g>
     </g>
    </g>
    <g id="ytick_4">
     <g id="line2d_4">
      <path clip-path="url(#p6b6dad9664)" d="M 30.6975 76.879237 
L 182.879318 76.879237 
" style="fill:none;stroke:#ffffff;stroke-linecap:round;"/>
     </g>
     <g id="text_5">
      <!-- 15 -->
      <g style="fill:#262626;" transform="translate(7.2 81.058378)scale(0.11 -0.11)">
       <use xlink:href="#DejaVuSans-49"/>
       <use x="63.623047" xlink:href="#DejaVuSans-53"/>
      </g>
     </g>
    </g>
    <g id="ytick_5">
     <g id="line2d_5">
      <path clip-path="url(#p6b6dad9664)" d="M 30.6975 31.838474 
L 182.879318 31.838474 
" style="fill:none;stroke:#ffffff;stroke-linecap:round;"/>
     </g>
     <g id="text_6">
      <!-- 20 -->
      <defs>
       <path d="M 19.1875 8.296875 
L 53.609375 8.296875 
L 53.609375 0 
L 7.328125 0 
L 7.328125 8.296875 
Q 12.9375 14.109375 22.625 23.890625 
Q 32.328125 33.6875 34.8125 36.53125 
Q 39.546875 41.84375 41.421875 45.53125 
Q 43.3125 49.21875 43.3125 52.78125 
Q 43.3125 58.59375 39.234375 62.25 
Q 35.15625 65.921875 28.609375 65.921875 
Q 23.96875 65.921875 18.8125 64.3125 
Q 13.671875 62.703125 7.8125 59.421875 
L 7.8125 69.390625 
Q 13.765625 71.78125 18.9375 73 
Q 24.125 74.21875 28.421875 74.21875 
Q 39.75 74.21875 46.484375 68.546875 
Q 53.21875 62.890625 53.21875 53.421875 
Q 53.21875 48.921875 51.53125 44.890625 
Q 49.859375 40.875 45.40625 35.40625 
Q 44.1875 33.984375 37.640625 27.21875 
Q 31.109375 20.453125 19.1875 8.296875 
z
" id="DejaVuSans-50"/>
      </defs>
      <g style="fill:#262626;" transform="translate(7.2 36.017615)scale(0.11 -0.11)">
       <use xlink:href="#DejaVuSans-50"/>
       <use x="63.623047" xlink:href="#DejaVuSans-48"/>
      </g>
     </g>
    </g>
   </g>
   <g id="patch_3">
    <path clip-path="url(#p6b6dad9664)" d="M 45.915682 184.977068 
L 167.661136 184.977068 
L 167.661136 157.95261 
L 45.915682 157.95261 
L 45.915682 184.977068 
z
" style="fill:#5875a4;stroke:#4c4c4c;stroke-linejoin:miter;stroke-width:1.5;"/>
   </g>
   <g id="line2d_6">
    <path clip-path="url(#p6b6dad9664)" d="M 106.788409 184.977068 
L 106.788409 212.001526 
" style="fill:none;stroke:#4c4c4c;stroke-linecap:round;stroke-width:1.5;"/>
   </g>
   <g id="line2d_7">
    <path clip-path="url(#p6b6dad9664)" d="M 106.788409 157.95261 
L 106.788409 121.92 
" style="fill:none;stroke:#4c4c4c;stroke-linecap:round;stroke-width:1.5;"/>
   </g>
   <g id="line2d_8">
    <path clip-path="url(#p6b6dad9664)" d="M 76.352045 212.001526 
L 137.224773 212.001526 
" style="fill:none;stroke:#4c4c4c;stroke-linecap:round;stroke-width:1.5;"/>
   </g>
   <g id="line2d_9">
    <path clip-path="url(#p6b6dad9664)" d="M 76.352045 121.92 
L 137.224773 121.92 
" style="fill:none;stroke:#4c4c4c;stroke-linecap:round;stroke-width:1.5;"/>
   </g>
   <g id="line2d_10">
    <defs>
     <path d="M -0 3.535534 
L 2.12132 0 
L -0 -3.535534 
L -2.12132 -0 
z
" id="m8e30824f0f" style="stroke:#4c4c4c;stroke-linejoin:miter;"/>
    </defs>
    <g clip-path="url(#p6b6dad9664)">
     <use style="fill:#4c4c4c;stroke:#4c4c4c;stroke-linejoin:miter;" x="106.788409" xlink:href="#m8e30824f0f" y="40.846627"/>
     <use style="fill:#4c4c4c;stroke:#4c4c4c;stroke-linejoin:miter;" x="106.788409" xlink:href="#m8e30824f0f" y="76.879237"/>
     <use style="fill:#4c4c4c;stroke:#4c4c4c;stroke-linejoin:miter;" x="106.788409" xlink:href="#m8e30824f0f" y="112.911847"/>
     <use style="fill:#4c4c4c;stroke:#4c4c4c;stroke-linejoin:miter;" x="106.788409" xlink:href="#m8e30824f0f" y="103.903695"/>
     <use style="fill:#4c4c4c;stroke:#4c4c4c;stroke-linejoin:miter;" x="106.788409" xlink:href="#m8e30824f0f" y="94.895542"/>
     <use style="fill:#4c4c4c;stroke:#4c4c4c;stroke-linejoin:miter;" x="106.788409" xlink:href="#m8e30824f0f" y="112.911847"/>
     <use style="fill:#4c4c4c;stroke:#4c4c4c;stroke-linejoin:miter;" x="106.788409" xlink:href="#m8e30824f0f" y="103.903695"/>
     <use style="fill:#4c4c4c;stroke:#4c4c4c;stroke-linejoin:miter;" x="106.788409" xlink:href="#m8e30824f0f" y="112.911847"/>
     <use style="fill:#4c4c4c;stroke:#4c4c4c;stroke-linejoin:miter;" x="106.788409" xlink:href="#m8e30824f0f" y="94.895542"/>
     <use style="fill:#4c4c4c;stroke:#4c4c4c;stroke-linejoin:miter;" x="106.788409" xlink:href="#m8e30824f0f" y="103.903695"/>
     <use style="fill:#4c4c4c;stroke:#4c4c4c;stroke-linejoin:miter;" x="106.788409" xlink:href="#m8e30824f0f" y="112.911847"/>
     <use style="fill:#4c4c4c;stroke:#4c4c4c;stroke-linejoin:miter;" x="106.788409" xlink:href="#m8e30824f0f" y="112.911847"/>
     <use style="fill:#4c4c4c;stroke:#4c4c4c;stroke-linejoin:miter;" x="106.788409" xlink:href="#m8e30824f0f" y="49.854779"/>
     <use style="fill:#4c4c4c;stroke:#4c4c4c;stroke-linejoin:miter;" x="106.788409" xlink:href="#m8e30824f0f" y="112.911847"/>
     <use style="fill:#4c4c4c;stroke:#4c4c4c;stroke-linejoin:miter;" x="106.788409" xlink:href="#m8e30824f0f" y="103.903695"/>
     <use style="fill:#4c4c4c;stroke:#4c4c4c;stroke-linejoin:miter;" x="106.788409" xlink:href="#m8e30824f0f" y="94.895542"/>
     <use style="fill:#4c4c4c;stroke:#4c4c4c;stroke-linejoin:miter;" x="106.788409" xlink:href="#m8e30824f0f" y="103.903695"/>
     <use style="fill:#4c4c4c;stroke:#4c4c4c;stroke-linejoin:miter;" x="106.788409" xlink:href="#m8e30824f0f" y="103.903695"/>
     <use style="fill:#4c4c4c;stroke:#4c4c4c;stroke-linejoin:miter;" x="106.788409" xlink:href="#m8e30824f0f" y="112.911847"/>
     <use style="fill:#4c4c4c;stroke:#4c4c4c;stroke-linejoin:miter;" x="106.788409" xlink:href="#m8e30824f0f" y="76.879237"/>
     <use style="fill:#4c4c4c;stroke:#4c4c4c;stroke-linejoin:miter;" x="106.788409" xlink:href="#m8e30824f0f" y="94.895542"/>
     <use style="fill:#4c4c4c;stroke:#4c4c4c;stroke-linejoin:miter;" x="106.788409" xlink:href="#m8e30824f0f" y="76.879237"/>
     <use style="fill:#4c4c4c;stroke:#4c4c4c;stroke-linejoin:miter;" x="106.788409" xlink:href="#m8e30824f0f" y="112.911847"/>
     <use style="fill:#4c4c4c;stroke:#4c4c4c;stroke-linejoin:miter;" x="106.788409" xlink:href="#m8e30824f0f" y="112.911847"/>
     <use style="fill:#4c4c4c;stroke:#4c4c4c;stroke-linejoin:miter;" x="106.788409" xlink:href="#m8e30824f0f" y="85.88739"/>
     <use style="fill:#4c4c4c;stroke:#4c4c4c;stroke-linejoin:miter;" x="106.788409" xlink:href="#m8e30824f0f" y="94.895542"/>
     <use style="fill:#4c4c4c;stroke:#4c4c4c;stroke-linejoin:miter;" x="106.788409" xlink:href="#m8e30824f0f" y="112.911847"/>
     <use style="fill:#4c4c4c;stroke:#4c4c4c;stroke-linejoin:miter;" x="106.788409" xlink:href="#m8e30824f0f" y="94.895542"/>
     <use style="fill:#4c4c4c;stroke:#4c4c4c;stroke-linejoin:miter;" x="106.788409" xlink:href="#m8e30824f0f" y="94.895542"/>
     <use style="fill:#4c4c4c;stroke:#4c4c4c;stroke-linejoin:miter;" x="106.788409" xlink:href="#m8e30824f0f" y="103.903695"/>
     <use style="fill:#4c4c4c;stroke:#4c4c4c;stroke-linejoin:miter;" x="106.788409" xlink:href="#m8e30824f0f" y="112.911847"/>
     <use style="fill:#4c4c4c;stroke:#4c4c4c;stroke-linejoin:miter;" x="106.788409" xlink:href="#m8e30824f0f" y="85.88739"/>
     <use style="fill:#4c4c4c;stroke:#4c4c4c;stroke-linejoin:miter;" x="106.788409" xlink:href="#m8e30824f0f" y="76.879237"/>
     <use style="fill:#4c4c4c;stroke:#4c4c4c;stroke-linejoin:miter;" x="106.788409" xlink:href="#m8e30824f0f" y="49.854779"/>
     <use style="fill:#4c4c4c;stroke:#4c4c4c;stroke-linejoin:miter;" x="106.788409" xlink:href="#m8e30824f0f" y="103.903695"/>
     <use style="fill:#4c4c4c;stroke:#4c4c4c;stroke-linejoin:miter;" x="106.788409" xlink:href="#m8e30824f0f" y="94.895542"/>
     <use style="fill:#4c4c4c;stroke:#4c4c4c;stroke-linejoin:miter;" x="106.788409" xlink:href="#m8e30824f0f" y="112.911847"/>
     <use style="fill:#4c4c4c;stroke:#4c4c4c;stroke-linejoin:miter;" x="106.788409" xlink:href="#m8e30824f0f" y="85.88739"/>
     <use style="fill:#4c4c4c;stroke:#4c4c4c;stroke-linejoin:miter;" x="106.788409" xlink:href="#m8e30824f0f" y="112.911847"/>
     <use style="fill:#4c4c4c;stroke:#4c4c4c;stroke-linejoin:miter;" x="106.788409" xlink:href="#m8e30824f0f" y="103.903695"/>
     <use style="fill:#4c4c4c;stroke:#4c4c4c;stroke-linejoin:miter;" x="106.788409" xlink:href="#m8e30824f0f" y="85.88739"/>
     <use style="fill:#4c4c4c;stroke:#4c4c4c;stroke-linejoin:miter;" x="106.788409" xlink:href="#m8e30824f0f" y="76.879237"/>
     <use style="fill:#4c4c4c;stroke:#4c4c4c;stroke-linejoin:miter;" x="106.788409" xlink:href="#m8e30824f0f" y="103.903695"/>
     <use style="fill:#4c4c4c;stroke:#4c4c4c;stroke-linejoin:miter;" x="106.788409" xlink:href="#m8e30824f0f" y="112.911847"/>
     <use style="fill:#4c4c4c;stroke:#4c4c4c;stroke-linejoin:miter;" x="106.788409" xlink:href="#m8e30824f0f" y="67.871084"/>
     <use style="fill:#4c4c4c;stroke:#4c4c4c;stroke-linejoin:miter;" x="106.788409" xlink:href="#m8e30824f0f" y="112.911847"/>
     <use style="fill:#4c4c4c;stroke:#4c4c4c;stroke-linejoin:miter;" x="106.788409" xlink:href="#m8e30824f0f" y="112.911847"/>
     <use style="fill:#4c4c4c;stroke:#4c4c4c;stroke-linejoin:miter;" x="106.788409" xlink:href="#m8e30824f0f" y="112.911847"/>
     <use style="fill:#4c4c4c;stroke:#4c4c4c;stroke-linejoin:miter;" x="106.788409" xlink:href="#m8e30824f0f" y="112.911847"/>
     <use style="fill:#4c4c4c;stroke:#4c4c4c;stroke-linejoin:miter;" x="106.788409" xlink:href="#m8e30824f0f" y="76.879237"/>
     <use style="fill:#4c4c4c;stroke:#4c4c4c;stroke-linejoin:miter;" x="106.788409" xlink:href="#m8e30824f0f" y="112.911847"/>
     <use style="fill:#4c4c4c;stroke:#4c4c4c;stroke-linejoin:miter;" x="106.788409" xlink:href="#m8e30824f0f" y="85.88739"/>
     <use style="fill:#4c4c4c;stroke:#4c4c4c;stroke-linejoin:miter;" x="106.788409" xlink:href="#m8e30824f0f" y="112.911847"/>
     <use style="fill:#4c4c4c;stroke:#4c4c4c;stroke-linejoin:miter;" x="106.788409" xlink:href="#m8e30824f0f" y="112.911847"/>
     <use style="fill:#4c4c4c;stroke:#4c4c4c;stroke-linejoin:miter;" x="106.788409" xlink:href="#m8e30824f0f" y="103.903695"/>
     <use style="fill:#4c4c4c;stroke:#4c4c4c;stroke-linejoin:miter;" x="106.788409" xlink:href="#m8e30824f0f" y="94.895542"/>
     <use style="fill:#4c4c4c;stroke:#4c4c4c;stroke-linejoin:miter;" x="106.788409" xlink:href="#m8e30824f0f" y="112.911847"/>
     <use style="fill:#4c4c4c;stroke:#4c4c4c;stroke-linejoin:miter;" x="106.788409" xlink:href="#m8e30824f0f" y="112.911847"/>
     <use style="fill:#4c4c4c;stroke:#4c4c4c;stroke-linejoin:miter;" x="106.788409" xlink:href="#m8e30824f0f" y="67.871084"/>
     <use style="fill:#4c4c4c;stroke:#4c4c4c;stroke-linejoin:miter;" x="106.788409" xlink:href="#m8e30824f0f" y="94.895542"/>
     <use style="fill:#4c4c4c;stroke:#4c4c4c;stroke-linejoin:miter;" x="106.788409" xlink:href="#m8e30824f0f" y="112.911847"/>
     <use style="fill:#4c4c4c;stroke:#4c4c4c;stroke-linejoin:miter;" x="106.788409" xlink:href="#m8e30824f0f" y="94.895542"/>
     <use style="fill:#4c4c4c;stroke:#4c4c4c;stroke-linejoin:miter;" x="106.788409" xlink:href="#m8e30824f0f" y="112.911847"/>
     <use style="fill:#4c4c4c;stroke:#4c4c4c;stroke-linejoin:miter;" x="106.788409" xlink:href="#m8e30824f0f" y="76.879237"/>
     <use style="fill:#4c4c4c;stroke:#4c4c4c;stroke-linejoin:miter;" x="106.788409" xlink:href="#m8e30824f0f" y="112.911847"/>
     <use style="fill:#4c4c4c;stroke:#4c4c4c;stroke-linejoin:miter;" x="106.788409" xlink:href="#m8e30824f0f" y="103.903695"/>
     <use style="fill:#4c4c4c;stroke:#4c4c4c;stroke-linejoin:miter;" x="106.788409" xlink:href="#m8e30824f0f" y="94.895542"/>
     <use style="fill:#4c4c4c;stroke:#4c4c4c;stroke-linejoin:miter;" x="106.788409" xlink:href="#m8e30824f0f" y="49.854779"/>
     <use style="fill:#4c4c4c;stroke:#4c4c4c;stroke-linejoin:miter;" x="106.788409" xlink:href="#m8e30824f0f" y="103.903695"/>
     <use style="fill:#4c4c4c;stroke:#4c4c4c;stroke-linejoin:miter;" x="106.788409" xlink:href="#m8e30824f0f" y="103.903695"/>
     <use style="fill:#4c4c4c;stroke:#4c4c4c;stroke-linejoin:miter;" x="106.788409" xlink:href="#m8e30824f0f" y="103.903695"/>
     <use style="fill:#4c4c4c;stroke:#4c4c4c;stroke-linejoin:miter;" x="106.788409" xlink:href="#m8e30824f0f" y="112.911847"/>
     <use style="fill:#4c4c4c;stroke:#4c4c4c;stroke-linejoin:miter;" x="106.788409" xlink:href="#m8e30824f0f" y="94.895542"/>
     <use style="fill:#4c4c4c;stroke:#4c4c4c;stroke-linejoin:miter;" x="106.788409" xlink:href="#m8e30824f0f" y="112.911847"/>
     <use style="fill:#4c4c4c;stroke:#4c4c4c;stroke-linejoin:miter;" x="106.788409" xlink:href="#m8e30824f0f" y="94.895542"/>
     <use style="fill:#4c4c4c;stroke:#4c4c4c;stroke-linejoin:miter;" x="106.788409" xlink:href="#m8e30824f0f" y="85.88739"/>
     <use style="fill:#4c4c4c;stroke:#4c4c4c;stroke-linejoin:miter;" x="106.788409" xlink:href="#m8e30824f0f" y="31.838474"/>
     <use style="fill:#4c4c4c;stroke:#4c4c4c;stroke-linejoin:miter;" x="106.788409" xlink:href="#m8e30824f0f" y="58.862932"/>
    </g>
   </g>
   <g id="line2d_11">
    <path clip-path="url(#p6b6dad9664)" d="M 45.915682 175.968916 
L 167.661136 175.968916 
" style="fill:none;stroke:#4c4c4c;stroke-linecap:round;stroke-width:1.5;"/>
   </g>
   <g id="patch_4">
    <path d="M 30.6975 230.64 
L 30.6975 13.2 
" style="fill:none;stroke:#ffffff;stroke-linecap:square;stroke-linejoin:miter;stroke-width:1.25;"/>
   </g>
   <g id="patch_5">
    <path d="M 182.879318 230.64 
L 182.879318 13.2 
" style="fill:none;stroke:#ffffff;stroke-linecap:square;stroke-linejoin:miter;stroke-width:1.25;"/>
   </g>
   <g id="patch_6">
    <path d="M 30.6975 230.64 
L 182.879318 230.64 
" style="fill:none;stroke:#ffffff;stroke-linecap:square;stroke-linejoin:miter;stroke-width:1.25;"/>
   </g>
   <g id="patch_7">
    <path d="M 30.6975 13.2 
L 182.879318 13.2 
" style="fill:none;stroke:#ffffff;stroke-linecap:square;stroke-linejoin:miter;stroke-width:1.25;"/>
   </g>
  </g>
  <g id="axes_2">
   <g id="patch_8">
    <path d="M 213.315682 230.64 
L 365.4975 230.64 
L 365.4975 13.2 
L 213.315682 13.2 
z
" style="fill:#eaeaf2;"/>
   </g>
   <g id="matplotlib.axis_3">
    <g id="xtick_2">
     <g id="text_7">
      <!-- 0 -->
      <g style="fill:#262626;" transform="translate(285.907216 248.498281)scale(0.11 -0.11)">
       <use xlink:href="#DejaVuSans-48"/>
      </g>
     </g>
    </g>
   </g>
   <g id="matplotlib.axis_4">
    <g id="ytick_6">
     <g id="line2d_12">
      <path clip-path="url(#p28edd05bd8)" d="M 213.315682 212.001526 
L 365.4975 212.001526 
" style="fill:none;stroke:#ffffff;stroke-linecap:round;"/>
     </g>
    </g>
    <g id="ytick_7">
     <g id="line2d_13">
      <path clip-path="url(#p28edd05bd8)" d="M 213.315682 166.960763 
L 365.4975 166.960763 
" style="fill:none;stroke:#ffffff;stroke-linecap:round;"/>
     </g>
    </g>
    <g id="ytick_8">
     <g id="line2d_14">
      <path clip-path="url(#p28edd05bd8)" d="M 213.315682 121.92 
L 365.4975 121.92 
" style="fill:none;stroke:#ffffff;stroke-linecap:round;"/>
     </g>
    </g>
    <g id="ytick_9">
     <g id="line2d_15">
      <path clip-path="url(#p28edd05bd8)" d="M 213.315682 76.879237 
L 365.4975 76.879237 
" style="fill:none;stroke:#ffffff;stroke-linecap:round;"/>
     </g>
    </g>
    <g id="ytick_10">
     <g id="line2d_16">
      <path clip-path="url(#p28edd05bd8)" d="M 213.315682 31.838474 
L 365.4975 31.838474 
" style="fill:none;stroke:#ffffff;stroke-linecap:round;"/>
     </g>
    </g>
   </g>
   <g id="PolyCollection_1">
    <defs>
     <path d="M 289.594596 -37.229574 
L 289.218585 -37.229574 
L 288.973448 -39.226268 
L 288.564691 -41.222962 
L 287.9615 -43.219657 
L 287.056031 -45.216351 
L 285.568434 -47.213045 
L 283.171336 -49.209739 
L 279.869016 -51.206433 
L 276.120207 -53.203128 
L 272.206849 -55.199822 
L 267.506895 -57.196516 
L 261.091757 -59.19321 
L 253.442015 -61.189904 
L 246.753156 -63.186599 
L 242.556095 -65.183293 
L 239.631905 -67.179987 
L 235.730021 -69.176681 
L 231.114399 -71.173376 
L 228.533864 -73.17007 
L 229.249694 -75.166764 
L 231.076605 -77.163458 
L 231.580528 -79.160152 
L 231.54944 -81.156847 
L 233.428947 -83.153541 
L 237.355861 -85.150235 
L 240.987239 -87.146929 
L 243.074013 -89.143623 
L 245.015484 -91.140318 
L 248.281544 -93.137012 
L 252.102618 -95.133706 
L 254.884797 -97.1304 
L 256.70759 -99.127095 
L 258.967458 -101.123789 
L 262.093448 -103.120483 
L 265.045037 -105.117177 
L 267.078958 -107.113871 
L 268.801359 -109.110566 
L 271.060578 -111.10726 
L 273.662093 -113.103954 
L 275.783276 -115.100648 
L 277.138406 -117.097342 
L 278.086683 -119.094037 
L 278.843681 -121.090731 
L 279.246366 -123.087425 
L 279.33542 -125.084119 
L 279.626027 -127.080814 
L 280.541509 -129.077508 
L 281.88161 -131.074202 
L 283.113052 -133.070896 
L 284.000793 -135.06759 
L 284.705513 -137.064285 
L 285.382813 -139.060979 
L 285.969519 -141.057673 
L 286.378629 -143.054367 
L 286.683918 -145.051061 
L 287.010596 -147.047756 
L 287.359212 -149.04445 
L 287.63905 -151.041144 
L 287.816702 -153.037838 
L 287.940041 -155.034533 
L 288.040179 -157.031227 
L 288.096744 -159.027921 
L 288.111697 -161.024615 
L 288.14976 -163.021309 
L 288.268853 -165.018004 
L 288.446727 -167.014698 
L 288.611199 -169.011392 
L 288.720759 -171.008086 
L 288.78349 -173.00478 
L 288.813946 -175.001475 
L 288.81299 -176.998169 
L 288.79491 -178.994863 
L 288.800456 -180.991557 
L 288.86142 -182.988252 
L 288.965244 -184.984946 
L 289.070397 -186.98164 
L 289.149043 -188.978334 
L 289.202393 -190.975028 
L 289.241672 -192.971723 
L 289.270195 -194.968417 
L 289.285282 -196.965111 
L 289.285596 -198.961805 
L 289.270526 -200.958499 
L 289.239321 -202.955194 
L 289.198471 -204.951888 
L 289.166694 -206.948582 
L 289.163611 -208.945276 
L 289.191416 -210.941971 
L 289.232903 -212.938665 
L 289.268814 -214.935359 
L 289.292378 -216.932053 
L 289.30648 -218.928747 
L 289.313996 -220.925442 
L 289.316319 -222.922136 
L 289.317886 -224.91883 
L 289.325609 -226.915524 
L 289.342413 -228.912218 
L 289.364071 -230.908913 
L 289.38344 -232.905607 
L 289.396305 -234.902301 
L 289.416877 -234.902301 
L 289.416877 -234.902301 
L 289.429742 -232.905607 
L 289.449111 -230.908913 
L 289.470769 -228.912218 
L 289.487573 -226.915524 
L 289.495296 -224.91883 
L 289.496863 -222.922136 
L 289.499186 -220.925442 
L 289.506701 -218.928747 
L 289.520804 -216.932053 
L 289.544368 -214.935359 
L 289.580279 -212.938665 
L 289.621766 -210.941971 
L 289.64957 -208.945276 
L 289.646487 -206.948582 
L 289.614711 -204.951888 
L 289.573861 -202.955194 
L 289.542656 -200.958499 
L 289.527586 -198.961805 
L 289.5279 -196.965111 
L 289.542987 -194.968417 
L 289.57151 -192.971723 
L 289.610789 -190.975028 
L 289.664139 -188.978334 
L 289.742785 -186.98164 
L 289.847938 -184.984946 
L 289.951762 -182.988252 
L 290.012726 -180.991557 
L 290.018272 -178.994863 
L 290.000192 -176.998169 
L 289.999236 -175.001475 
L 290.029691 -173.00478 
L 290.092423 -171.008086 
L 290.201983 -169.011392 
L 290.366454 -167.014698 
L 290.544329 -165.018004 
L 290.663421 -163.021309 
L 290.701485 -161.024615 
L 290.716438 -159.027921 
L 290.773003 -157.031227 
L 290.873141 -155.034533 
L 290.996479 -153.037838 
L 291.174132 -151.041144 
L 291.45397 -149.04445 
L 291.802586 -147.047756 
L 292.129264 -145.051061 
L 292.434553 -143.054367 
L 292.843663 -141.057673 
L 293.430369 -139.060979 
L 294.107669 -137.064285 
L 294.812389 -135.06759 
L 295.70013 -133.070896 
L 296.931572 -131.074202 
L 298.271673 -129.077508 
L 299.187155 -127.080814 
L 299.477761 -125.084119 
L 299.566816 -123.087425 
L 299.969501 -121.090731 
L 300.726499 -119.094037 
L 301.674776 -117.097342 
L 303.029906 -115.100648 
L 305.151089 -113.103954 
L 307.752604 -111.10726 
L 310.011823 -109.110566 
L 311.734224 -107.113871 
L 313.768145 -105.117177 
L 316.719733 -103.120483 
L 319.845723 -101.123789 
L 322.105592 -99.127095 
L 323.928385 -97.1304 
L 326.710564 -95.133706 
L 330.531638 -93.137012 
L 333.797698 -91.140318 
L 335.739169 -89.143623 
L 337.825943 -87.146929 
L 341.45732 -85.150235 
L 345.384234 -83.153541 
L 347.263742 -81.156847 
L 347.232654 -79.160152 
L 347.736577 -77.163458 
L 349.563488 -75.166764 
L 350.279318 -73.17007 
L 347.698782 -71.173376 
L 343.083161 -69.176681 
L 339.181277 -67.179987 
L 336.257087 -65.183293 
L 332.060026 -63.186599 
L 325.371166 -61.189904 
L 317.721425 -59.19321 
L 311.306287 -57.196516 
L 306.606333 -55.199822 
L 302.692975 -53.203128 
L 298.944166 -51.206433 
L 295.641845 -49.209739 
L 293.244748 -47.213045 
L 291.757151 -45.216351 
L 290.851682 -43.219657 
L 290.248491 -41.222962 
L 289.839734 -39.226268 
L 289.594596 -37.229574 
z
" id="m2d5de83f7e" style="stroke:#4c4c4c;stroke-width:1.5;"/>
    </defs>
    <g clip-path="url(#p28edd05bd8)">
     <use style="fill:#5875a4;stroke:#4c4c4c;stroke-width:1.5;" x="0" xlink:href="#m2d5de83f7e" y="257.985937"/>
    </g>
   </g>
   <g id="line2d_17">
    <path clip-path="url(#p28edd05bd8)" d="M 289.406591 212.001526 
L 289.406591 121.92 
" style="fill:none;stroke:#4c4c4c;stroke-linecap:round;stroke-width:1.5;"/>
   </g>
   <g id="line2d_18">
    <path clip-path="url(#p28edd05bd8)" d="M 289.406591 184.977068 
L 289.406591 157.95261 
" style="fill:none;stroke:#4c4c4c;stroke-linecap:round;stroke-width:4.5;"/>
   </g>
   <g id="patch_9">
    <path d="M 213.315682 230.64 
L 213.315682 13.2 
" style="fill:none;stroke:#ffffff;stroke-linecap:square;stroke-linejoin:miter;stroke-width:1.25;"/>
   </g>
   <g id="patch_10">
    <path d="M 365.4975 230.64 
L 365.4975 13.2 
" style="fill:none;stroke:#ffffff;stroke-linecap:square;stroke-linejoin:miter;stroke-width:1.25;"/>
   </g>
   <g id="patch_11">
    <path d="M 213.315682 230.64 
L 365.4975 230.64 
" style="fill:none;stroke:#ffffff;stroke-linecap:square;stroke-linejoin:miter;stroke-width:1.25;"/>
   </g>
   <g id="patch_12">
    <path d="M 213.315682 13.2 
L 365.4975 13.2 
" style="fill:none;stroke:#ffffff;stroke-linecap:square;stroke-linejoin:miter;stroke-width:1.25;"/>
   </g>
   <g id="PathCollection_1">
    <defs>
     <path d="M 0 1.5 
C 0.397805 1.5 0.77937 1.341951 1.06066 1.06066 
C 1.341951 0.77937 1.5 0.397805 1.5 0 
C 1.5 -0.397805 1.341951 -0.77937 1.06066 -1.06066 
C 0.77937 -1.341951 0.397805 -1.5 0 -1.5 
C -0.397805 -1.5 -0.77937 -1.341951 -1.06066 -1.06066 
C -1.341951 -0.77937 -1.5 -0.397805 -1.5 0 
C -1.5 0.397805 -1.341951 0.77937 -1.06066 1.06066 
C -0.77937 1.341951 -0.397805 1.5 0 1.5 
z
" id="m1c1d530d73" style="stroke:#4c4c4c;"/>
    </defs>
    <g clip-path="url(#p28edd05bd8)">
     <use style="fill:#ffffff;stroke:#4c4c4c;" x="289.406591" xlink:href="#m1c1d530d73" y="175.968916"/>
    </g>
   </g>
  </g>
 </g>
 <defs>
  <clipPath id="p6b6dad9664">
   <rect height="217.44" width="152.181818" x="30.6975" y="13.2"/>
  </clipPath>
  <clipPath id="p28edd05bd8">
   <rect height="217.44" width="152.181818" x="213.315682" y="13.2"/>
  </clipPath>
 </defs>
</svg>
